<svg xmlns="http://www.w3.org/2000/svg" width="64" height="64" fill="none">
  <path fill="#FFDE03" d="M0 0h64v64H0z"/>
  <g fill="#000">
    <path d="M35.837.854V6.24H25.069v3.879h10.768v5.386h3.88V.854h-3.88ZM39.717 53.432h-6.525l-6.166-6.166-2.743 2.743 5.198 5.196-5.198 5.2 2.743 2.741 5.839-5.835h6.852v-3.879ZM35.837 36.304h-6.165c-.681 0-1.234-.575-1.234-1.284 0-.705.553-1.28 1.234-1.28h6.165v2.564Zm0-11.932v5.57l-8.963-6.112-2.186 3.207 4.8 3.273h-.37c-2.505 0-4.535 2.11-4.535 4.708 0 2.605 2.03 4.715 4.535 4.715H39.717V24.371h-3.88v.001Z"/>
  </g>
</svg>
